<svg width="19" height="19" viewBox="0 0 19 19" fill="none" xmlns="http://www.w3.org/2000/svg">
<g clip-path="url(#clip0_2_6)">
<g clip-path="url(#clip1_2_6)">
<path d="M9.5 0.5C4.53752 0.5 0.5 4.53731 0.5 9.5C0.5 14.4627 4.53752 18.5 9.5 18.5C14.4627 18.5 18.5 14.4627 18.5 9.5C18.5 4.53731 14.4625 0.5 9.5 0.5ZM9.5 17.1861C5.26191 17.1861 1.81386 13.7381 1.81386 9.5C1.81386 5.26191 5.26191 1.81386 9.5 1.81386C13.7381 1.81386 17.1861 5.26188 17.1861 9.49979C17.1861 13.7381 13.7381 17.1861 9.5 17.1861Z" fill="white"/>
<path d="M12.5657 9.5H9.71901V5.55839C9.71901 5.19554 9.42493 4.90146 9.06208 4.90146C8.69923 4.90146 8.40515 5.19554 8.40515 5.55839V10.1569C8.40515 10.5198 8.69923 10.8139 9.06208 10.8139H12.5657C12.9286 10.8139 13.2226 10.5198 13.2226 10.1569C13.2226 9.79408 12.9286 9.5 12.5657 9.5Z" fill="white"/>
</g>
</g>
<defs>
<clipPath id="clip0_2_6">
<rect width="18" height="18" fill="white" transform="translate(0.5 0.5)"/>
</clipPath>
<clipPath id="clip1_2_6">
<rect width="18" height="18" fill="white" transform="translate(0.5 0.5)"/>
</clipPath>
</defs>
</svg>
