<svg width="19" height="19" viewBox="0 0 19 19" fill="none" xmlns="http://www.w3.org/2000/svg">
<g clip-path="url(#clip0_2_32)">
<g clip-path="url(#clip1_2_32)">
<path d="M16.3906 2.89062H2.60938C1.44627 2.89062 0.5 3.83689 0.5 5V14C0.5 15.1631 1.44627 16.1094 2.60938 16.1094H16.3906C17.5537 16.1094 18.5 15.1631 18.5 14V5C18.5 3.83689 17.5537 2.89062 16.3906 2.89062ZM17.0938 14C17.0938 14.3877 16.7783 14.7031 16.3906 14.7031H2.60938C2.22167 14.7031 1.90625 14.3877 1.90625 14V5C1.90625 4.6123 2.22167 4.29688 2.60938 4.29688H16.3906C16.7783 4.29688 17.0938 4.6123 17.0938 5V14Z" fill="white"/>
<path d="M16.9743 3.76732L9.49999 9.32682L2.02563 3.76732L1.18631 4.89566L9.49999 11.0794L17.8137 4.89566L16.9743 3.76732Z" fill="white"/>
</g>
</g>
<defs>
<clipPath id="clip0_2_32">
<rect width="18" height="18" fill="white" transform="translate(0.5 0.5)"/>
</clipPath>
<clipPath id="clip1_2_32">
<rect width="18" height="18" fill="white" transform="translate(0.5 0.5)"/>
</clipPath>
</defs>
</svg>
