<svg width="19" height="17" viewBox="0 0 19 17" fill="none" xmlns="http://www.w3.org/2000/svg">
<path d="M17.162 2.05157C16.2302 1.04097 14.9517 0.484375 13.5617 0.484375C12.5226 0.484375 11.5711 0.812866 10.7334 1.46065C10.3107 1.78763 9.92766 2.18767 9.58997 2.65459C9.25241 2.18781 8.86926 1.78763 8.44643 1.46065C7.60886 0.812866 6.6573 0.484375 5.61827 0.484375C4.22823 0.484375 2.94955 1.04097 2.01778 2.05157C1.09712 3.05037 0.589966 4.41487 0.589966 5.89391C0.589966 7.4162 1.15727 8.80968 2.37524 10.2794C3.46481 11.594 5.03078 12.9286 6.84421 14.474C7.46342 15.0017 8.16531 15.5999 8.89412 16.2371C9.08665 16.4058 9.33371 16.4986 9.58997 16.4986C9.84608 16.4986 10.0933 16.4058 10.2855 16.2374C11.0143 15.6001 11.7166 15.0016 12.3361 14.4735C14.1493 12.9285 15.7153 11.594 16.8048 10.2792C18.0228 8.80968 18.59 7.4162 18.59 5.89377C18.59 4.41487 18.0828 3.05037 17.162 2.05157Z" fill="white"/>
</svg>
