<svg width="21" height="21" viewBox="0 0 21 21" fill="none" xmlns="http://www.w3.org/2000/svg">
<g clip-path="url(#clip0_2_614)">
<path d="M20.0467 6.48963C20.0016 5.4668 19.8362 4.76362 19.5993 4.1543C19.3548 3.50752 18.9787 2.92847 18.486 2.44709C18.0046 1.95823 17.4217 1.57836 16.7824 1.33775C16.1695 1.1008 15.4699 0.935401 14.4471 0.890305C13.4165 0.841389 13.0894 0.830078 10.4757 0.830078C7.86195 0.830078 7.53479 0.841389 6.50808 0.886486C5.48519 0.931582 4.78196 1.09713 4.17275 1.33393C3.52579 1.57836 2.94669 1.95441 2.46529 2.44709C1.9764 2.92847 1.59665 3.51134 1.35587 4.15063C1.11892 4.76362 0.953505 5.46299 0.908406 6.48581C0.859487 7.51628 0.848175 7.84341 0.848175 10.457C0.848175 13.0705 0.859487 13.3976 0.904586 14.4243C0.949686 15.4471 1.11525 16.1503 1.3522 16.7596C1.59665 17.4064 1.9764 17.9855 2.46529 18.4668C2.94669 18.9557 3.52961 19.3356 4.16893 19.5762C4.78196 19.8131 5.48137 19.9785 6.50441 20.0236C7.53097 20.0689 7.85827 20.08 10.472 20.08C13.0857 20.08 13.4128 20.0689 14.4396 20.0236C15.4625 19.9785 16.1657 19.8131 16.7749 19.5762C18.0687 19.076 19.0916 18.0532 19.5918 16.7596C19.8286 16.1466 19.9941 15.4471 20.0392 14.4243C20.0843 13.3976 20.0956 13.0705 20.0956 10.457C20.0956 7.84341 20.0918 7.51628 20.0467 6.48963ZM18.3131 14.3491C18.2717 15.2892 18.1138 15.7969 17.9821 16.1353C17.6587 16.9739 16.993 17.6395 16.1544 17.963C15.8159 18.0946 15.3045 18.2525 14.368 18.2938C13.3526 18.339 13.0481 18.3502 10.4795 18.3502C7.91086 18.3502 7.60251 18.339 6.59079 18.2938C5.6506 18.2525 5.1429 18.0946 4.80444 17.963C4.38709 17.8087 4.00719 17.5643 3.69884 17.2447C3.37918 16.9325 3.13473 16.5565 2.98048 16.1391C2.84886 15.8007 2.69094 15.2892 2.64966 14.3529C2.60441 13.3376 2.59324 13.0329 2.59324 10.4645C2.59324 7.896 2.60441 7.58767 2.64966 6.57615C2.69094 5.63603 2.84886 5.12836 2.98048 4.78991C3.13473 4.37244 3.37918 3.99272 3.70266 3.68424C4.01468 3.3646 4.39076 3.12016 4.80826 2.96607C5.14672 2.83445 5.65824 2.67654 6.59461 2.63512C7.61001 2.59002 7.91468 2.57871 10.4831 2.57871C13.0556 2.57871 13.3601 2.59002 14.3718 2.63512C15.312 2.67654 15.8197 2.83445 16.1582 2.96607C16.5755 3.12016 16.9554 3.3646 17.2638 3.68424C17.5834 3.99639 17.8279 4.37244 17.9821 4.78991C18.1138 5.12836 18.2717 5.6397 18.3131 6.57615C18.3582 7.59149 18.3695 7.896 18.3695 10.4645C18.3695 13.0329 18.3582 13.3337 18.3131 14.3491Z" fill="#363636"/>
<path d="M10.4753 5.51207C7.7453 5.51207 5.53027 7.72695 5.53027 10.4571C5.53027 13.1873 7.7453 15.4022 10.4753 15.4022C13.2055 15.4022 15.4204 13.1873 15.4204 10.4571C15.4204 7.72695 13.2055 5.51207 10.4753 5.51207ZM10.4753 13.6649C8.70422 13.6649 7.2676 12.2284 7.2676 10.4571C7.2676 8.68587 8.70422 7.24939 10.4753 7.24939C12.2466 7.24939 13.6831 8.68587 13.6831 10.4571C13.6831 12.2284 12.2466 13.6649 10.4753 13.6649ZM16.7705 5.31655C16.7705 5.95408 16.2536 6.471 15.6159 6.471C14.9784 6.471 14.4615 5.95408 14.4615 5.31655C14.4615 4.67888 14.9784 4.16211 15.6159 4.16211C16.2536 4.16211 16.7705 4.67888 16.7705 5.31655Z" fill="#363636"/>
</g>
<defs>
<clipPath id="clip0_2_614">
<rect width="19.22" height="19.25" fill="white" transform="translate(0.829956 0.830078)"/>
</clipPath>
</defs>
</svg>
