<svg width="21" height="21" viewBox="0 0 21 21" fill="none" xmlns="http://www.w3.org/2000/svg">
<g clip-path="url(#clip0_2_130)">
<g clip-path="url(#clip1_2_130)">
<path d="M19.561 18.7168L14.801 13.7662C16.0249 12.3113 16.6955 10.4807 16.6955 8.57499C16.6955 4.12251 13.0729 0.5 8.62046 0.5C4.16798 0.5 0.545471 4.12251 0.545471 8.57499C0.545471 13.0275 4.16798 16.65 8.62046 16.65C10.292 16.65 11.8849 16.1458 13.2467 15.1888L18.0429 20.177C18.2434 20.3852 18.513 20.5 18.802 20.5C19.0755 20.5 19.3349 20.3957 19.5319 20.2061C19.9504 19.8034 19.9637 19.1357 19.561 18.7168ZM8.62046 2.60652C11.9116 2.60652 14.5889 5.28391 14.5889 8.57499C14.5889 11.8661 11.9116 14.5435 8.62046 14.5435C5.32938 14.5435 2.65199 11.8661 2.65199 8.57499C2.65199 5.28391 5.32938 2.60652 8.62046 2.60652Z" fill="#363636"/>
</g>
</g>
<defs>
<clipPath id="clip0_2_130">
<rect width="20" height="20" fill="white" transform="translate(0.200012 0.5)"/>
</clipPath>
<clipPath id="clip1_2_130">
<rect width="20" height="20" fill="white" transform="translate(0.200012 0.5)"/>
</clipPath>
</defs>
</svg>
