<svg width="26" height="26" viewBox="0 0 26 26" fill="none" xmlns="http://www.w3.org/2000/svg">
<g clip-path="url(#clip0_2_151)">
<g clip-path="url(#clip1_2_151)">
<path d="M8.96545 16.8576H22.1981C22.5257 16.8576 22.8132 16.6409 22.9019 16.3262L25.8318 6.07213C25.8947 5.85107 25.8516 5.6136 25.7129 5.42992C25.5741 5.24682 25.3582 5.13867 25.1278 5.13867H7.27459L6.75102 2.78271C6.67664 2.44721 6.37909 2.20898 6.03577 2.20898H1.59241C1.18767 2.20898 0.859985 2.53667 0.859985 2.94141C0.859985 3.34634 1.18767 3.67383 1.59241 3.67383H5.44792L8.09284 15.5757C7.31464 15.914 6.76819 16.6886 6.76819 17.59C6.76819 18.8016 7.75391 19.7873 8.96545 19.7873H22.1981C22.603 19.7873 22.9305 19.4598 22.9305 19.0549C22.9305 18.6501 22.603 18.3225 22.1981 18.3225H8.96545C8.56205 18.3225 8.23303 17.9942 8.23303 17.59C8.23303 17.1859 8.56205 16.8576 8.96545 16.8576Z" fill="#363636"/>
<path d="M8.23303 21.9846C8.23303 23.1963 9.21875 24.1818 10.4305 24.1818C11.642 24.1818 12.6278 23.1963 12.6278 21.9846C12.6278 20.773 11.642 19.7873 10.4305 19.7873C9.21875 19.7873 8.23303 20.773 8.23303 21.9846Z" fill="#363636"/>
<path d="M18.5359 21.9846C18.5359 23.1963 19.5217 24.1818 20.7332 24.1818C21.945 24.1818 22.9305 23.1963 22.9305 21.9846C22.9305 20.773 21.945 19.7873 20.7332 19.7873C19.5217 19.7873 18.5359 20.773 18.5359 21.9846Z" fill="#363636"/>
</g>
</g>
<defs>
<clipPath id="clip0_2_151">
<rect width="25" height="25" fill="white" transform="translate(0.859985 0.5)"/>
</clipPath>
<clipPath id="clip1_2_151">
<rect width="25" height="25" fill="white" transform="translate(0.859985 0.5)"/>
</clipPath>
</defs>
</svg>
