<svg width="16" height="17" viewBox="0 0 16 17" fill="none" xmlns="http://www.w3.org/2000/svg">
<g clip-path="url(#clip0_2_73)">
<path d="M15.69 3.65872C15.1088 3.91369 14.4894 4.08269 13.8437 4.16474C14.508 3.76813 15.015 3.14489 15.2533 2.39367C14.634 2.76293 13.9502 3.02375 13.2214 3.16931C12.6334 2.54313 11.7952 2.15531 10.8808 2.15531C9.10684 2.15531 7.67865 3.59523 7.67865 5.36044C7.67865 5.61443 7.70014 5.85864 7.75289 6.09114C5.08895 5.96122 2.73175 4.68444 1.14824 2.73948C0.871781 3.21913 0.709619 3.76813 0.709619 4.35914C0.709619 5.46887 1.28109 6.45258 2.13293 7.0221C1.61811 7.01233 1.11307 6.86287 0.685198 6.62745V6.66261C0.685198 8.21975 1.7959 9.51313 3.25242 9.81108C2.9916 9.88239 2.70733 9.91658 2.41231 9.91658C2.20717 9.91658 2.00007 9.90486 1.80567 9.86188C2.22085 11.1308 3.39896 12.0638 4.7998 12.094C3.7096 12.9468 2.32537 13.4607 0.826844 13.4607C0.564065 13.4607 0.312031 13.449 0.0599976 13.4167C1.4794 14.3321 3.16158 14.8547 4.97563 14.8547C10.872 14.8547 14.0957 9.97031 14.0957 5.73654C14.0957 5.59489 14.0909 5.45813 14.084 5.32234C14.72 4.87102 15.2543 4.30737 15.69 3.65872Z" fill="white"/>
</g>
<defs>
<clipPath id="clip0_2_73">
<rect width="15.63" height="15.63" fill="white" transform="translate(0.0599976 0.690002)"/>
</clipPath>
</defs>
</svg>
