<svg width="19" height="19" viewBox="0 0 19 19" fill="none" xmlns="http://www.w3.org/2000/svg">
<g clip-path="url(#clip0_2_79)">
<g clip-path="url(#clip1_2_79)">
<g clip-path="url(#clip2_2_79)">
<path d="M16.9075 12.8515H16.7199V11.7265C16.7199 10.6931 15.8785 9.85156 14.845 9.85156C13.8114 9.85156 12.97 10.6931 12.97 11.7265V12.8515H12.7824C12.0587 12.8515 11.47 13.4402 11.47 14.1641V16.789C11.47 17.5129 12.0587 18.1016 12.7824 18.1016H16.9075C17.6312 18.1016 18.22 17.5129 18.22 16.789V14.1641C18.22 13.4402 17.6312 12.8515 16.9075 12.8515ZM14.095 11.7265C14.095 11.3133 14.4317 10.9766 14.845 10.9766C15.2582 10.9766 15.5949 11.3133 15.5949 11.7265V12.8515H14.095V11.7265Z" fill="white"/>
<path d="M10.345 14.1641C10.345 13.1516 10.9653 12.2823 11.845 11.9141V11.7265C11.845 11.2706 11.9552 10.8431 12.1382 10.4553C11.5712 10.075 10.8902 9.85156 10.1575 9.85156H3.78242C1.81821 9.85156 0.219971 11.4498 0.219971 13.414V16.0391C0.219971 16.3496 0.47197 16.6016 0.782471 16.6016H10.345V14.1641Z" fill="white"/>
<path d="M10.72 4.60161C10.72 6.67267 9.04102 8.35152 6.96996 8.35152C4.8989 8.35152 3.21991 6.67267 3.21991 4.60161C3.21991 2.53055 4.8989 0.851562 6.96996 0.851562C9.04102 0.851562 10.72 2.53055 10.72 4.60161Z" fill="white"/>
</g>
</g>
</g>
<defs>
<clipPath id="clip0_2_79">
<rect width="18" height="18" fill="white" transform="translate(0.219971 0.5)"/>
</clipPath>
<clipPath id="clip1_2_79">
<rect width="18" height="18" fill="white" transform="translate(0.219971 0.5)"/>
</clipPath>
<clipPath id="clip2_2_79">
<rect width="18" height="18" fill="white" transform="translate(0.219971 0.5)"/>
</clipPath>
</defs>
</svg>
