<svg width="16" height="17" viewBox="0 0 16 17" fill="none" xmlns="http://www.w3.org/2000/svg">
<path d="M9.40177 1.82112H6.72822C4.13693 1.82112 2.0495 3.90855 2.0495 6.49984V8.505C2.0495 10.3148 3.08808 11.9601 4.72306 12.7313V14.9729C4.72306 15.0861 4.82589 15.1889 4.95956 15.1889C5.01098 15.1889 5.07267 15.1683 5.11381 15.1272L7.04699 13.1837H9.40177C11.9931 13.1837 14.0805 11.0963 14.0805 8.505V6.49984C14.0805 3.90855 11.9931 1.82112 9.40177 1.82112ZM11.1601 10.5924L10.4918 11.2608C9.77196 11.9601 7.92104 11.158 6.28606 9.49216C4.65108 7.82633 3.92099 5.94456 4.60994 5.24533L5.27833 4.57694C5.54569 4.33015 5.96729 4.34043 6.23464 4.5975L7.20123 5.60523C7.44802 5.87258 7.44802 6.27361 7.18067 6.54097C7.10869 6.61295 7.02642 6.65408 6.93388 6.69521C6.59454 6.79804 6.41973 7.1271 6.502 7.46643C6.66652 8.2068 7.60227 9.13226 8.31179 9.31735C8.64084 9.39961 8.98018 9.21452 9.09329 8.89575C9.2064 8.5667 9.57658 8.38161 9.9262 8.49472C10.029 8.52557 10.1113 8.59755 10.1936 8.65925L11.1601 9.66697C11.4069 9.91376 11.4069 10.3251 11.1601 10.5924ZM8.66141 4.99854C8.58943 4.99854 8.52773 4.99854 8.46603 5.0191C8.35292 5.03967 8.22952 4.94712 8.21924 4.81344C8.20896 4.67977 8.29122 4.57694 8.41462 4.56665C8.49688 4.54609 8.57914 4.54609 8.66141 4.54609C9.89535 4.54609 10.8825 5.55381 10.9031 6.76719C10.9031 6.84946 10.9031 6.93172 10.8825 7.01398C10.8619 7.1271 10.7694 7.22992 10.6357 7.20936C10.502 7.18879 10.4198 7.09625 10.4403 6.96257C10.4403 6.89059 10.4609 6.82889 10.4609 6.76719C10.4506 5.8006 9.64856 4.99854 8.66141 4.99854ZM9.99818 6.78776C9.97762 6.90087 9.88507 7.0037 9.75139 6.98313C9.64856 6.96257 9.55602 6.88031 9.55602 6.78776C9.55602 6.30446 9.15498 5.90343 8.67169 5.90343C8.55858 5.924 8.43518 5.82117 8.4249 5.69777C8.40433 5.58466 8.50716 5.46127 8.62027 5.45098H8.65112C9.42234 5.45098 9.99818 6.04739 9.99818 6.78776ZM11.7051 7.49728C11.6846 7.61039 11.5715 7.69265 11.4584 7.68237C11.3452 7.67209 11.263 7.54869 11.2733 7.43558V7.40473C11.3247 7.20936 11.3452 7.0037 11.3452 6.78776C11.3452 5.31731 10.1421 4.11421 8.67169 4.11421H8.47631C8.3632 4.13477 8.23981 4.03194 8.23981 3.90855C8.21924 3.79544 8.32207 3.67204 8.43518 3.67204C8.51744 3.67204 8.59971 3.65148 8.67169 3.65148C10.3889 3.65148 11.7977 5.04995 11.7977 6.77748C11.7874 7.01398 11.7566 7.27106 11.7051 7.49728Z" fill="white"/>
</svg>
