<svg width="16" height="17" viewBox="0 0 16 17" fill="none" xmlns="http://www.w3.org/2000/svg">
<g clip-path="url(#clip0_2_70)">
<path d="M7.9469 0.690002H7.94299C3.63399 0.690002 0.129944 4.19503 0.129944 8.505C0.129944 10.2145 0.680901 11.799 1.61772 13.0856L0.64378 15.9888L3.64767 15.0286C4.88342 15.8472 6.35752 16.32 7.9469 16.32C12.2559 16.32 15.7599 12.814 15.7599 8.505C15.7599 4.19601 12.2559 0.690002 7.9469 0.690002ZM12.4943 11.7258C12.3057 12.2582 11.5574 12.6997 10.9606 12.8287C10.5522 12.9156 10.0188 12.985 8.22335 12.2406C5.92672 11.2891 4.44773 8.95534 4.33246 8.80393C4.22207 8.65251 3.40443 7.56818 3.40443 6.44673C3.40443 5.32527 3.97395 4.7792 4.20351 4.54475C4.39205 4.35231 4.70367 4.26439 5.0026 4.26439C5.09931 4.26439 5.18625 4.26927 5.2644 4.27318C5.49396 4.28295 5.60924 4.29663 5.76065 4.65905C5.94919 5.11329 6.40832 6.23475 6.46302 6.35002C6.51871 6.46529 6.57439 6.62159 6.49624 6.773C6.42297 6.9293 6.3585 6.99866 6.24323 7.13152C6.12796 7.26437 6.01855 7.36597 5.90327 7.50859C5.79777 7.63265 5.67859 7.76551 5.81145 7.99507C5.9443 8.21976 6.40344 8.96902 7.07943 9.57077C7.95178 10.3474 8.65904 10.5955 8.91205 10.701C9.10059 10.7792 9.32527 10.7606 9.46301 10.6141C9.63787 10.4255 9.85376 10.1129 10.0736 9.80522C10.2299 9.58445 10.4272 9.5571 10.6343 9.63525C10.8453 9.70851 11.9619 10.2604 12.1914 10.3747C12.421 10.49 12.5724 10.5447 12.6281 10.6414C12.6828 10.7381 12.6828 11.1924 12.4943 11.7258Z" fill="white"/>
</g>
<defs>
<clipPath id="clip0_2_70">
<rect width="15.63" height="15.63" fill="white" transform="translate(0.129944 0.690002)"/>
</clipPath>
</defs>
</svg>
